<svg width="632" height="855" viewBox="0 0 632 855" fill="none" xmlns="http://www.w3.org/2000/svg">
<g filter="url(#filter0_d)">
<!-- <path d="M4 32C4 20.7989 4 15.1984 6.17987 10.9202C8.09734 7.15695 11.1569 4.09734 14.9202 2.17987C19.1984 0 24.7989 0 36 0H596C607.201 0 612.802 0 617.08 2.17987C620.843 4.09734 623.903 7.15695 625.82 10.9202C628 15.1984 628 20.7989 628 32V691.551C628 745.955 628 773.157 617.406 793.923C608.088 812.189 593.221 827.033 574.94 836.321C554.157 846.882 526.955 846.838 472.551 846.751L158.951 846.248C104.705 846.161 77.5816 846.118 56.866 835.534C38.6436 826.223 23.8325 811.388 14.5512 793.151C4 772.418 4 745.295 4 691.049V32Z" fill="#BB5540"/> -->
<path d="M36 0.5H596C601.609 0.5 605.785 0.500389 609.095 0.770823C612.399 1.04078 614.796 1.57734 616.853 2.62537C620.522 4.4949 623.505 7.47802 625.375 11.1472C626.423 13.2041 626.959 15.6006 627.229 18.9048C627.5 22.2147 627.5 26.3912 627.5 32V691.551C627.5 718.761 627.5 739.139 626.177 755.31C624.856 771.476 622.216 783.395 616.961 793.696C607.691 811.868 592.9 826.635 574.714 835.876C564.404 841.114 552.481 843.735 536.313 845.031C520.14 846.327 499.762 846.294 472.552 846.251L158.952 845.748C131.821 845.705 111.502 845.672 95.3761 844.329C79.2559 842.987 67.3692 840.339 57.0935 835.088C38.9651 825.826 24.2303 811.067 14.9968 792.924C9.76302 782.64 7.13362 770.749 5.81724 754.627C4.50039 738.499 4.5 718.18 4.5 691.049V32C4.5 26.3912 4.50039 22.2147 4.77082 18.9048C5.04078 15.6006 5.57734 13.2041 6.62537 11.1472C8.4949 7.47802 11.478 4.4949 15.1472 2.62537C17.2041 1.57734 19.6006 1.04078 22.9048 0.770823C26.2147 0.500389 30.3912 0.5 36 0.5Z" stroke="black"/>
</g>
<defs>
<filter id="filter0_d" x="0" y="0" width="632" height="854.766" filterUnits="userSpaceOnUse" color-interpolation-filters="sRGB">
<feFlood flood-opacity="0" result="BackgroundImageFix"/>
<feColorMatrix in="SourceAlpha" type="matrix" values="0 0 0 0 0 0 0 0 0 0 0 0 0 0 0 0 0 0 127 0" result="hardAlpha"/>
<feOffset dy="4"/>
<feGaussianBlur stdDeviation="2"/>
<feComposite in2="hardAlpha" operator="out"/>
<feColorMatrix type="matrix" values="0 0 0 0 0 0 0 0 0 0 0 0 0 0 0 0 0 0 0.25 0"/>
<feBlend mode="normal" in2="BackgroundImageFix" result="effect1_dropShadow"/>
<feBlend mode="normal" in="SourceGraphic" in2="effect1_dropShadow" result="shape"/>
</filter>
</defs>
</svg>
